<?xml version="1.0" encoding="UTF-8" standalone="no"?>
<!DOCTYPE svg PUBLIC "-//W3C//DTD SVG 1.1//EN"
 "http://www.w3.org/Graphics/SVG/1.1/DTD/svg11.dtd">
<!-- Generated by graphviz version 2.43.0 (0)
 -->
<!-- Title: G Pages: 1 -->
<svg width="1306pt" height="315pt"
 viewBox="0.00 0.00 1306.00 315.00" xmlns="http://www.w3.org/2000/svg" xmlns:xlink="http://www.w3.org/1999/xlink">
<g id="graph0" class="graph" transform="scale(1 1) rotate(0) translate(4 311)">
<title>G</title>
<polygon fill="white" stroke="transparent" points="-4,4 -4,-311 1302,-311 1302,4 -4,4"/>
<g id="clust1" class="cluster">
<title>cluster_direct</title>
<polygon fill="none" stroke="black" points="8,-8 8,-299 1290,-299 1290,-8 8,-8"/>
<text text-anchor="middle" x="649" y="-283.8" font-family="Times,serif" font-size="14.00">direct dependencies</text>
</g>
<!-- n0 -->
<g id="node1" class="node">
<title>n0</title>
<ellipse fill="#67000d" stroke="black" cx="613" cy="-34" rx="59.59" ry="18"/>
<text text-anchor="middle" x="613" y="-30.3" font-family="Times,serif" font-size="14.00">assert.hpp</text>
</g>
<!-- n1 -->
<g id="node2" class="node">
<title>n1</title>
<ellipse fill="#bdddb6" stroke="black" cx="805" cy="-106" rx="153.27" ry="18"/>
<text text-anchor="middle" x="805" y="-102.3" font-family="Times,serif" font-size="14.00">formatting_and_type_tools.cpp</text>
</g>
<!-- n1&#45;&gt;n0 -->
<g id="edge1" class="edge">
<title>n1&#45;&gt;n0</title>
<path fill="none" stroke="black" d="M760.47,-88.76C730.08,-77.69 689.92,-63.05 659.19,-51.84"/>
<polygon fill="black" stroke="black" points="660.16,-48.47 649.57,-48.33 657.76,-55.04 660.16,-48.47"/>
</g>
<!-- n2 -->
<g id="node3" class="node">
<title>n2</title>
<ellipse fill="#fb6a4a" stroke="black" cx="1066" cy="-106" rx="70.39" ry="18"/>
<text text-anchor="middle" x="1066" y="-102.3" font-family="Times,serif" font-size="14.00">common.hpp</text>
</g>
<!-- n3 -->
<g id="node4" class="node">
<title>n3</title>
<ellipse fill="#fcbba1" stroke="black" cx="1171" cy="-178" rx="71.49" ry="18"/>
<text text-anchor="middle" x="1171" y="-174.3" font-family="Times,serif" font-size="14.00">platform.hpp</text>
</g>
<!-- n3&#45;&gt;n0 -->
<g id="edge2" class="edge">
<title>n3&#45;&gt;n0</title>
<path fill="none" stroke="black" d="M1171.31,-159.9C1170.66,-139.39 1166.18,-105.58 1145,-88 1110.11,-59.03 818.51,-43.41 682.44,-37.63"/>
<polygon fill="black" stroke="black" points="682.26,-34.12 672.12,-37.2 681.97,-41.12 682.26,-34.12"/>
</g>
<!-- n3&#45;&gt;n2 -->
<g id="edge3" class="edge">
<title>n3&#45;&gt;n2</title>
<path fill="none" stroke="black" d="M1146.91,-160.94C1132.5,-151.34 1114.01,-139.01 1098.35,-128.56"/>
<polygon fill="black" stroke="black" points="1100.24,-125.62 1089.98,-122.98 1096.36,-131.44 1100.24,-125.62"/>
</g>
<!-- n4 -->
<g id="node5" class="node">
<title>n4</title>
<ellipse fill="#67000d" stroke="black" cx="479" cy="-106" rx="51.99" ry="18"/>
<text text-anchor="middle" x="479" y="-102.3" font-family="Times,serif" font-size="14.00">utils.hpp</text>
</g>
<!-- n4&#45;&gt;n0 -->
<g id="edge4" class="edge">
<title>n4&#45;&gt;n0</title>
<path fill="none" stroke="black" d="M506.44,-90.67C526.27,-80.31 553.31,-66.18 575.18,-54.75"/>
<polygon fill="black" stroke="black" points="576.96,-57.77 584.21,-50.04 573.72,-51.57 576.96,-57.77"/>
</g>
<!-- n5 -->
<g id="node6" class="node">
<title>n5</title>
<ellipse fill="#99ce93" stroke="black" cx="1191" cy="-250" rx="70.39" ry="18"/>
<text text-anchor="middle" x="1191" y="-246.3" font-family="Times,serif" font-size="14.00">platform.cpp</text>
</g>
<!-- n5&#45;&gt;n0 -->
<g id="edge5" class="edge">
<title>n5&#45;&gt;n0</title>
<path fill="none" stroke="black" d="M1221.51,-233.68C1235.68,-224.79 1251.12,-212.14 1259,-196 1266.02,-181.62 1266.26,-174.26 1259,-160 1234.31,-111.52 1210.87,-107.3 1160,-88 1074.34,-55.49 809.36,-41.93 682.31,-37.18"/>
<polygon fill="black" stroke="black" points="682.42,-33.69 672.3,-36.82 682.17,-40.68 682.42,-33.69"/>
</g>
<!-- n5&#45;&gt;n2 -->
<g id="edge6" class="edge">
<title>n5&#45;&gt;n2</title>
<path fill="none" stroke="black" d="M1217.69,-233.12C1230.3,-224.01 1244.09,-211.33 1251,-196 1257.58,-181.41 1260.63,-172.78 1251,-160 1236.71,-141.05 1181.3,-126.81 1134.82,-117.89"/>
<polygon fill="black" stroke="black" points="1135.22,-114.4 1124.75,-116.01 1133.94,-121.28 1135.22,-114.4"/>
</g>
<!-- n5&#45;&gt;n3 -->
<g id="edge7" class="edge">
<title>n5&#45;&gt;n3</title>
<path fill="none" stroke="black" d="M1186.06,-231.7C1183.83,-223.9 1181.15,-214.51 1178.67,-205.83"/>
<polygon fill="black" stroke="black" points="1182,-204.76 1175.89,-196.1 1175.27,-206.68 1182,-204.76"/>
</g>
<!-- n5&#45;&gt;n4 -->
<g id="edge8" class="edge">
<title>n5&#45;&gt;n4</title>
<path fill="none" stroke="black" d="M1161.02,-233.64C1141.04,-223.27 1114.27,-209.14 1091,-196 1063.92,-180.71 1060.55,-169.68 1031,-160 866.42,-106.1 815.36,-140.93 643,-124 608.32,-120.59 569.54,-116.58 538.39,-113.31"/>
<polygon fill="black" stroke="black" points="538.46,-109.8 528.14,-112.23 537.72,-116.76 538.46,-109.8"/>
</g>
<!-- n6 -->
<g id="node7" class="node">
<title>n6</title>
<ellipse fill="#fb6a4a" stroke="black" cx="340" cy="-106" rx="68.79" ry="18"/>
<text text-anchor="middle" x="340" y="-102.3" font-family="Times,serif" font-size="14.00">analysis.hpp</text>
</g>
<!-- n6&#45;&gt;n0 -->
<g id="edge9" class="edge">
<title>n6&#45;&gt;n0</title>
<path fill="none" stroke="black" d="M387.24,-92.89C435.17,-80.6 509.24,-61.6 559.35,-48.76"/>
<polygon fill="black" stroke="black" points="560.23,-52.15 569.04,-46.27 558.49,-45.36 560.23,-52.15"/>
</g>
<!-- n7 -->
<g id="node8" class="node">
<title>n7</title>
<ellipse fill="#99ce93" stroke="black" cx="131" cy="-178" rx="94.78" ry="18"/>
<text text-anchor="middle" x="131" y="-174.3" font-family="Times,serif" font-size="14.00">stringification.cpp</text>
</g>
<!-- n7&#45;&gt;n0 -->
<g id="edge10" class="edge">
<title>n7&#45;&gt;n0</title>
<path fill="none" stroke="black" d="M149.83,-160.11C173.97,-139.49 217.97,-105.25 262,-88 354.84,-51.64 470.53,-40.07 543.1,-36.48"/>
<polygon fill="black" stroke="black" points="543.66,-39.95 553.49,-36 543.34,-32.96 543.66,-39.95"/>
</g>
<!-- n7&#45;&gt;n4 -->
<g id="edge11" class="edge">
<title>n7&#45;&gt;n4</title>
<path fill="none" stroke="black" d="M201.25,-165.83C259.57,-156.12 344.57,-140.98 418,-124 422.16,-123.04 426.46,-121.98 430.76,-120.87"/>
<polygon fill="black" stroke="black" points="431.97,-124.17 440.74,-118.23 430.17,-117.4 431.97,-124.17"/>
</g>
<!-- n7&#45;&gt;n6 -->
<g id="edge12" class="edge">
<title>n7&#45;&gt;n6</title>
<path fill="none" stroke="black" d="M175.58,-162.07C209.11,-150.84 255.08,-135.44 289.88,-123.79"/>
<polygon fill="black" stroke="black" points="291.01,-127.1 299.38,-120.6 288.79,-120.46 291.01,-127.1"/>
</g>
<!-- n8 -->
<g id="node9" class="node">
<title>n8</title>
<ellipse fill="#fcbba1" stroke="black" cx="781" cy="-178" rx="68.79" ry="18"/>
<text text-anchor="middle" x="781" y="-174.3" font-family="Times,serif" font-size="14.00">printing.hpp</text>
</g>
<!-- n8&#45;&gt;n0 -->
<g id="edge13" class="edge">
<title>n8&#45;&gt;n0</title>
<path fill="none" stroke="black" d="M731.03,-165.54C691.8,-155.53 641.62,-140.1 628,-124 613.65,-107.04 610.6,-81.58 610.72,-62.22"/>
<polygon fill="black" stroke="black" points="614.22,-62.31 611.07,-52.2 607.23,-62.07 614.22,-62.31"/>
</g>
<!-- n8&#45;&gt;n4 -->
<g id="edge14" class="edge">
<title>n8&#45;&gt;n4</title>
<path fill="none" stroke="black" d="M731.13,-165.44C675.93,-152.65 587.36,-132.12 531.23,-119.11"/>
<polygon fill="black" stroke="black" points="531.67,-115.62 521.14,-116.77 530.09,-122.44 531.67,-115.62"/>
</g>
<!-- n8&#45;&gt;n6 -->
<g id="edge15" class="edge">
<title>n8&#45;&gt;n6</title>
<path fill="none" stroke="black" d="M729.75,-165.88C719.27,-163.79 708.3,-161.71 698,-160 574.23,-139.4 541.63,-145.38 418,-124 412.14,-122.99 406.05,-121.83 399.97,-120.62"/>
<polygon fill="black" stroke="black" points="400.31,-117.11 389.81,-118.53 398.9,-123.97 400.31,-117.11"/>
</g>
<!-- n9 -->
<g id="node10" class="node">
<title>n9</title>
<ellipse fill="#fb6a4a" stroke="black" cx="601" cy="-178" rx="73.39" ry="18"/>
<text text-anchor="middle" x="601" y="-174.3" font-family="Times,serif" font-size="14.00">microfmt.hpp</text>
</g>
<!-- n10 -->
<g id="node11" class="node">
<title>n10</title>
<ellipse fill="#99ce93" stroke="black" cx="722" cy="-250" rx="67.69" ry="18"/>
<text text-anchor="middle" x="722" y="-246.3" font-family="Times,serif" font-size="14.00">printing.cpp</text>
</g>
<!-- n10&#45;&gt;n8 -->
<g id="edge16" class="edge">
<title>n10&#45;&gt;n8</title>
<path fill="none" stroke="black" d="M736.28,-232.05C743.46,-223.54 752.29,-213.07 760.2,-203.68"/>
<polygon fill="black" stroke="black" points="763.08,-205.69 766.85,-195.79 757.73,-201.18 763.08,-205.69"/>
</g>
<!-- n10&#45;&gt;n9 -->
<g id="edge17" class="edge">
<title>n10&#45;&gt;n9</title>
<path fill="none" stroke="black" d="M695.15,-233.46C678.03,-223.57 655.66,-210.62 637.01,-199.83"/>
<polygon fill="black" stroke="black" points="638.61,-196.71 628.2,-194.73 635.1,-202.77 638.61,-196.71"/>
</g>
<!-- n11 -->
<g id="node12" class="node">
<title>n11</title>
<ellipse fill="#fcbba1" stroke="black" cx="377" cy="-178" rx="73.39" ry="18"/>
<text text-anchor="middle" x="377" y="-174.3" font-family="Times,serif" font-size="14.00">tokenizer.hpp</text>
</g>
<!-- n11&#45;&gt;n4 -->
<g id="edge18" class="edge">
<title>n11&#45;&gt;n4</title>
<path fill="none" stroke="black" d="M400.66,-160.76C414.73,-151.11 432.74,-138.75 447.94,-128.31"/>
<polygon fill="black" stroke="black" points="450.26,-130.97 456.52,-122.43 446.3,-125.2 450.26,-130.97"/>
</g>
<!-- n12 -->
<g id="node13" class="node">
<title>n12</title>
<ellipse fill="#6eba70" stroke="black" cx="423" cy="-250" rx="72.59" ry="18"/>
<text text-anchor="middle" x="423" y="-246.3" font-family="Times,serif" font-size="14.00">tokenizer.cpp</text>
</g>
<!-- n12&#45;&gt;n4 -->
<g id="edge19" class="edge">
<title>n12&#45;&gt;n4</title>
<path fill="none" stroke="black" d="M436.75,-232.3C444.34,-222.31 453.34,-209.06 459,-196 467.54,-176.29 472.64,-152.49 475.56,-134.46"/>
<polygon fill="black" stroke="black" points="479.05,-134.73 477.06,-124.33 472.13,-133.7 479.05,-134.73"/>
</g>
<!-- n12&#45;&gt;n11 -->
<g id="edge20" class="edge">
<title>n12&#45;&gt;n11</title>
<path fill="none" stroke="black" d="M411.86,-232.05C406.46,-223.84 399.86,-213.79 393.86,-204.66"/>
<polygon fill="black" stroke="black" points="396.77,-202.71 388.35,-196.28 390.92,-206.55 396.77,-202.71"/>
</g>
<!-- n13 -->
<g id="node14" class="node">
<title>n13</title>
<ellipse fill="#6eba70" stroke="black" cx="564" cy="-250" rx="50.89" ry="18"/>
<text text-anchor="middle" x="564" y="-246.3" font-family="Times,serif" font-size="14.00">utils.cpp</text>
</g>
<!-- n13&#45;&gt;n0 -->
<g id="edge21" class="edge">
<title>n13&#45;&gt;n0</title>
<path fill="none" stroke="black" d="M545.03,-232.92C535.23,-223.34 524.24,-210.28 519,-196 513.48,-180.98 513.93,-175.18 519,-160 526.39,-137.87 566.22,-89.13 591.6,-59.47"/>
<polygon fill="black" stroke="black" points="594.46,-61.51 598.34,-51.65 589.16,-56.94 594.46,-61.51"/>
</g>
<!-- n13&#45;&gt;n4 -->
<g id="edge22" class="edge">
<title>n13&#45;&gt;n4</title>
<path fill="none" stroke="black" d="M541.09,-233.8C528.46,-224.32 513.46,-211.07 504,-196 492.23,-177.25 485.89,-152.87 482.54,-134.37"/>
<polygon fill="black" stroke="black" points="485.95,-133.55 480.89,-124.24 479.04,-134.67 485.95,-133.55"/>
</g>
<!-- n13&#45;&gt;n9 -->
<g id="edge23" class="edge">
<title>n13&#45;&gt;n9</title>
<path fill="none" stroke="black" d="M572.96,-232.05C577.21,-224.01 582.39,-214.2 587.14,-205.23"/>
<polygon fill="black" stroke="black" points="590.29,-206.75 591.87,-196.28 584.1,-203.48 590.29,-206.75"/>
</g>
<!-- n14 -->
<g id="node15" class="node">
<title>n14</title>
<ellipse fill="#fcbba1" stroke="black" cx="965" cy="-178" rx="57.39" ry="18"/>
<text text-anchor="middle" x="965" y="-174.3" font-family="Times,serif" font-size="14.00">paths.hpp</text>
</g>
<!-- n14&#45;&gt;n0 -->
<g id="edge24" class="edge">
<title>n14&#45;&gt;n0</title>
<path fill="none" stroke="black" d="M971.44,-160.01C977.72,-140.24 984.05,-107.79 967,-88 931.08,-46.31 775.43,-36.93 682.9,-35.12"/>
<polygon fill="black" stroke="black" points="682.83,-31.62 672.77,-34.95 682.71,-38.62 682.83,-31.62"/>
</g>
<!-- n14&#45;&gt;n4 -->
<g id="edge25" class="edge">
<title>n14&#45;&gt;n4</title>
<path fill="none" stroke="black" d="M917.85,-167.72C903.77,-165.07 888.28,-162.29 874,-160 754.84,-140.89 614.69,-123.22 537.47,-113.89"/>
<polygon fill="black" stroke="black" points="537.81,-110.41 527.46,-112.69 536.97,-117.36 537.81,-110.41"/>
</g>
<!-- n15 -->
<g id="node16" class="node">
<title>n15</title>
<ellipse fill="#3ea258" stroke="black" cx="1035" cy="-250" rx="55.79" ry="18"/>
<text text-anchor="middle" x="1035" y="-246.3" font-family="Times,serif" font-size="14.00">paths.cpp</text>
</g>
<!-- n15&#45;&gt;n2 -->
<g id="edge26" class="edge">
<title>n15&#45;&gt;n2</title>
<path fill="none" stroke="black" d="M1038.74,-231.87C1044.05,-207.56 1053.81,-162.82 1060.1,-134.01"/>
<polygon fill="black" stroke="black" points="1063.53,-134.71 1062.25,-124.19 1056.7,-133.21 1063.53,-134.71"/>
</g>
<!-- n15&#45;&gt;n14 -->
<g id="edge27" class="edge">
<title>n15&#45;&gt;n14</title>
<path fill="none" stroke="black" d="M1018.76,-232.76C1009.88,-223.88 998.71,-212.71 988.85,-202.85"/>
<polygon fill="black" stroke="black" points="991.18,-200.23 981.63,-195.63 986.23,-205.18 991.18,-200.23"/>
</g>
<!-- n16 -->
<g id="node17" class="node">
<title>n16</title>
<ellipse fill="#218441" stroke="black" cx="879" cy="-250" rx="59.29" ry="18"/>
<text text-anchor="middle" x="879" y="-246.3" font-family="Times,serif" font-size="14.00">assert.cpp</text>
</g>
<!-- n16&#45;&gt;n0 -->
<g id="edge28" class="edge">
<title>n16&#45;&gt;n0</title>
<path fill="none" stroke="black" d="M883.52,-231.84C887.63,-211.91 890.68,-179.3 873,-160 803.12,-83.69 722.1,-190.69 643,-124 633.38,-115.89 624.45,-85.2 618.88,-62.11"/>
<polygon fill="black" stroke="black" points="622.24,-61.1 616.57,-52.15 615.42,-62.68 622.24,-61.1"/>
</g>
<!-- n16&#45;&gt;n2 -->
<g id="edge29" class="edge">
<title>n16&#45;&gt;n2</title>
<path fill="none" stroke="black" d="M931.99,-241.89C964.23,-235.06 1004.21,-221.76 1031,-196 1032.21,-194.84 1045.83,-159.7 1055.72,-133.93"/>
<polygon fill="black" stroke="black" points="1059.11,-134.85 1059.42,-124.26 1052.57,-132.35 1059.11,-134.85"/>
</g>
<!-- n16&#45;&gt;n3 -->
<g id="edge30" class="edge">
<title>n16&#45;&gt;n3</title>
<path fill="none" stroke="black" d="M923.99,-238.22C974.14,-226.19 1055.48,-206.69 1111.01,-193.38"/>
<polygon fill="black" stroke="black" points="1112.16,-196.7 1121.07,-190.97 1110.53,-189.9 1112.16,-196.7"/>
</g>
<!-- n16&#45;&gt;n4 -->
<g id="edge31" class="edge">
<title>n16&#45;&gt;n4</title>
<path fill="none" stroke="black" d="M880.45,-231.79C881.13,-211.5 878.81,-178.24 859,-160 853.12,-154.58 642.08,-127.45 537.1,-114.24"/>
<polygon fill="black" stroke="black" points="537.34,-110.75 526.98,-112.97 536.47,-117.69 537.34,-110.75"/>
</g>
<!-- n16&#45;&gt;n6 -->
<g id="edge32" class="edge">
<title>n16&#45;&gt;n6</title>
<path fill="none" stroke="black" d="M831.7,-238.99C786.66,-228.71 722.88,-212.01 703,-196 688.75,-184.52 698.11,-170.33 683,-160 584.86,-92.95 535.05,-144.67 418,-124 412.14,-122.97 406.06,-121.8 399.98,-120.58"/>
<polygon fill="black" stroke="black" points="400.32,-117.07 389.82,-118.48 398.9,-123.93 400.32,-117.07"/>
</g>
<!-- n16&#45;&gt;n8 -->
<g id="edge33" class="edge">
<title>n16&#45;&gt;n8</title>
<path fill="none" stroke="black" d="M856.76,-233.12C843.45,-223.61 826.34,-211.38 811.74,-200.96"/>
<polygon fill="black" stroke="black" points="813.66,-198.03 803.49,-195.06 809.59,-203.72 813.66,-198.03"/>
</g>
<!-- n16&#45;&gt;n9 -->
<g id="edge34" class="edge">
<title>n16&#45;&gt;n9</title>
<path fill="none" stroke="black" d="M834.95,-237.91C787.77,-226.03 712.64,-207.11 660.29,-193.93"/>
<polygon fill="black" stroke="black" points="661.02,-190.5 650.47,-191.46 659.31,-197.29 661.02,-190.5"/>
</g>
<!-- n16&#45;&gt;n14 -->
<g id="edge35" class="edge">
<title>n16&#45;&gt;n14</title>
<path fill="none" stroke="black" d="M898.95,-232.76C910.34,-223.49 924.81,-211.71 937.29,-201.55"/>
<polygon fill="black" stroke="black" points="939.62,-204.17 945.16,-195.15 935.2,-198.75 939.62,-204.17"/>
</g>
<!-- n17 -->
<g id="node18" class="node">
<title>n17</title>
<ellipse fill="#00411a" stroke="black" cx="265" cy="-250" rx="67.69" ry="18"/>
<text text-anchor="middle" x="265" y="-246.3" font-family="Times,serif" font-size="14.00">analysis.cpp</text>
</g>
<!-- n17&#45;&gt;n0 -->
<g id="edge36" class="edge">
<title>n17&#45;&gt;n0</title>
<path fill="none" stroke="black" d="M198.04,-247.41C113.6,-242.74 -15.72,-225.09 27,-160 83.34,-74.15 401.33,-46.37 543.87,-38.15"/>
<polygon fill="black" stroke="black" points="544.45,-41.63 554.24,-37.57 544.06,-34.64 544.45,-41.63"/>
</g>
<!-- n17&#45;&gt;n2 -->
<g id="edge37" class="edge">
<title>n17&#45;&gt;n2</title>
<path fill="none" stroke="black" d="M268.44,-231.69C273.45,-208.38 283.44,-168.78 295,-160 354.54,-114.77 892.69,-132.34 967,-124 978.26,-122.74 990.18,-121.02 1001.7,-119.16"/>
<polygon fill="black" stroke="black" points="1002.41,-122.59 1011.7,-117.5 1001.26,-115.69 1002.41,-122.59"/>
</g>
<!-- n17&#45;&gt;n4 -->
<g id="edge38" class="edge">
<title>n17&#45;&gt;n4</title>
<path fill="none" stroke="black" d="M262.82,-231.92C261.31,-212.06 262.12,-179.53 280,-160 322.8,-113.25 356.8,-140.51 418,-124 422,-122.92 426.14,-121.79 430.3,-120.65"/>
<polygon fill="black" stroke="black" points="431.27,-124.01 439.98,-117.98 429.41,-117.27 431.27,-124.01"/>
</g>
<!-- n17&#45;&gt;n6 -->
<g id="edge39" class="edge">
<title>n17&#45;&gt;n6</title>
<path fill="none" stroke="black" d="M258.97,-231.79C253.49,-212.97 247.92,-182.5 260,-160 267.63,-145.79 280.93,-134.75 294.52,-126.51"/>
<polygon fill="black" stroke="black" points="296.43,-129.45 303.43,-121.5 293,-123.35 296.43,-129.45"/>
</g>
<!-- n17&#45;&gt;n9 -->
<g id="edge40" class="edge">
<title>n17&#45;&gt;n9</title>
<path fill="none" stroke="black" d="M314.85,-237.71C323.56,-235.78 332.54,-233.81 341,-232 407.34,-217.82 483.39,-202.42 536.03,-191.89"/>
<polygon fill="black" stroke="black" points="536.78,-195.31 545.9,-189.92 535.41,-188.44 536.78,-195.31"/>
</g>
<!-- n17&#45;&gt;n11 -->
<g id="edge41" class="edge">
<title>n17&#45;&gt;n11</title>
<path fill="none" stroke="black" d="M290.13,-233.29C305.73,-223.54 325.98,-210.89 343,-200.25"/>
<polygon fill="black" stroke="black" points="344.94,-203.17 351.56,-194.9 341.23,-197.23 344.94,-203.17"/>
</g>
</g>
</svg>
