<?xml version="1.0" encoding="UTF-8" standalone="no"?>
<!DOCTYPE svg PUBLIC "-//W3C//DTD SVG 1.1//EN"
 "http://www.w3.org/Graphics/SVG/1.1/DTD/svg11.dtd">
<!-- Generated by graphviz version 2.43.0 (0)
 -->
<!-- Title: G Pages: 1 -->
<svg width="3532pt" height="315pt"
 viewBox="0.00 0.00 3532.00 315.00" xmlns="http://www.w3.org/2000/svg" xmlns:xlink="http://www.w3.org/1999/xlink">
<g id="graph0" class="graph" transform="scale(1 1) rotate(0) translate(4 311)">
<title>G</title>
<polygon fill="white" stroke="transparent" points="-4,4 -4,-311 3528,-311 3528,4 -4,4"/>
<g id="clust1" class="cluster">
<title>cluster_direct</title>
<polygon fill="none" stroke="black" points="8,-8 8,-299 3516,-299 3516,-8 8,-8"/>
<text text-anchor="middle" x="1762" y="-283.8" font-family="Times,serif" font-size="14.00">direct dependencies</text>
</g>
<!-- n0 -->
<g id="node1" class="node">
<title>n0</title>
<ellipse fill="#67000d" stroke="black" cx="1115" cy="-34" rx="59.59" ry="18"/>
<text text-anchor="middle" x="1115" y="-30.3" font-family="Times,serif" font-size="14.00">assert.hpp</text>
</g>
<!-- n1 -->
<g id="node2" class="node">
<title>n1</title>
<ellipse fill="#d9e9d5" stroke="black" cx="2605" cy="-106" rx="153.27" ry="18"/>
<text text-anchor="middle" x="2605" y="-102.3" font-family="Times,serif" font-size="14.00">formatting_and_type_tools.cpp</text>
</g>
<!-- n1&#45;&gt;n0 -->
<g id="edge1" class="edge">
<title>n1&#45;&gt;n0</title>
<path fill="none" stroke="black" d="M2498.99,-92.95C2480.03,-91.08 2460.45,-89.33 2442,-88 1961.9,-53.41 1382.35,-39.99 1184.83,-36.21"/>
<polygon fill="black" stroke="black" points="1184.66,-32.71 1174.59,-36.02 1184.53,-39.71 1184.66,-32.71"/>
</g>
<!-- n2 -->
<g id="node3" class="node">
<title>n2</title>
<ellipse fill="#d9e9d5" stroke="black" cx="2313" cy="-106" rx="120.48" ry="18"/>
<text text-anchor="middle" x="2313" y="-102.3" font-family="Times,serif" font-size="14.00">constexpr_contexts.cpp</text>
</g>
<!-- n2&#45;&gt;n0 -->
<g id="edge2" class="edge">
<title>n2&#45;&gt;n0</title>
<path fill="none" stroke="black" d="M2229.19,-93.03C2213.85,-91.13 2197.96,-89.35 2183,-88 1807.25,-54.16 1355.03,-40.65 1184.55,-36.51"/>
<polygon fill="black" stroke="black" points="1184.54,-33.01 1174.46,-36.27 1184.37,-40.01 1184.54,-33.01"/>
</g>
<!-- n3 -->
<g id="node4" class="node">
<title>n3</title>
<ellipse fill="#bdddb6" stroke="black" cx="2062" cy="-106" rx="112.38" ry="18"/>
<text text-anchor="middle" x="2062" y="-102.3" font-family="Times,serif" font-size="14.00">test_type_prettier.cpp</text>
</g>
<!-- n3&#45;&gt;n0 -->
<g id="edge3" class="edge">
<title>n3&#45;&gt;n0</title>
<path fill="none" stroke="black" d="M1981.78,-93.32C1966.59,-91.36 1950.83,-89.48 1936,-88 1657.99,-60.31 1325.51,-43.99 1184.1,-37.83"/>
<polygon fill="black" stroke="black" points="1183.99,-34.33 1173.85,-37.39 1183.69,-41.32 1183.99,-34.33"/>
</g>
<!-- n4 -->
<g id="node5" class="node">
<title>n4</title>
<ellipse fill="#fee0d2" stroke="black" cx="1203" cy="-106" rx="68.79" ry="18"/>
<text text-anchor="middle" x="1203" y="-102.3" font-family="Times,serif" font-size="14.00">analysis.hpp</text>
</g>
<!-- n4&#45;&gt;n0 -->
<g id="edge4" class="edge">
<title>n4&#45;&gt;n0</title>
<path fill="none" stroke="black" d="M1182.59,-88.76C1170.93,-79.49 1156.13,-67.71 1143.35,-57.55"/>
<polygon fill="black" stroke="black" points="1145.3,-54.63 1135.3,-51.15 1140.95,-60.11 1145.3,-54.63"/>
</g>
<!-- n5 -->
<g id="node6" class="node">
<title>n5</title>
<ellipse fill="#bdddb6" stroke="black" cx="2247" cy="-178" rx="102.08" ry="18"/>
<text text-anchor="middle" x="2247" y="-174.3" font-family="Times,serif" font-size="14.00">disambiguation.cpp</text>
</g>
<!-- n5&#45;&gt;n0 -->
<g id="edge5" class="edge">
<title>n5&#45;&gt;n0</title>
<path fill="none" stroke="black" d="M2346.47,-173.91C2489.55,-168.43 2739.4,-154.56 2767,-124 2777.72,-112.13 2778.13,-99.49 2767,-88 2739.06,-59.15 1495.69,-40.21 1184.86,-35.93"/>
<polygon fill="black" stroke="black" points="1184.68,-32.42 1174.63,-35.79 1184.58,-39.42 1184.68,-32.42"/>
</g>
<!-- n5&#45;&gt;n4 -->
<g id="edge6" class="edge">
<title>n5&#45;&gt;n4</title>
<path fill="none" stroke="black" d="M2149.43,-172.56C1920.99,-162.02 1364.38,-135.55 1280,-124 1273.86,-123.16 1267.48,-122.08 1261.14,-120.88"/>
<polygon fill="black" stroke="black" points="1261.74,-117.44 1251.25,-118.91 1260.37,-124.3 1261.74,-117.44"/>
</g>
<!-- n6 -->
<g id="node7" class="node">
<title>n6</title>
<ellipse fill="#bdddb6" stroke="black" cx="1791" cy="-106" rx="120.78" ry="18"/>
<text text-anchor="middle" x="1791" y="-102.3" font-family="Times,serif" font-size="14.00">test_public_utilities.cpp</text>
</g>
<!-- n6&#45;&gt;n0 -->
<g id="edge7" class="edge">
<title>n6&#45;&gt;n0</title>
<path fill="none" stroke="black" d="M1704.69,-93.3C1690.12,-91.45 1675.13,-89.61 1661,-88 1488.55,-68.36 1284.93,-49.82 1181.91,-40.77"/>
<polygon fill="black" stroke="black" points="1181.93,-37.26 1171.66,-39.87 1181.31,-44.23 1181.93,-37.26"/>
</g>
<!-- n7 -->
<g id="node8" class="node">
<title>n7</title>
<ellipse fill="#bdddb6" stroke="black" cx="1575" cy="-106" rx="76.89" ry="18"/>
<text text-anchor="middle" x="1575" y="-102.3" font-family="Times,serif" font-size="14.00">basic_test.cpp</text>
</g>
<!-- n7&#45;&gt;n0 -->
<g id="edge8" class="edge">
<title>n7&#45;&gt;n0</title>
<path fill="none" stroke="black" d="M1519.76,-93.48C1509.87,-91.55 1499.64,-89.64 1490,-88 1381.36,-69.47 1254.22,-52.49 1179.38,-42.97"/>
<polygon fill="black" stroke="black" points="1179.54,-39.46 1169.18,-41.67 1178.66,-46.4 1179.54,-39.46"/>
</g>
<!-- n8 -->
<g id="node9" class="node">
<title>n8</title>
<ellipse fill="#bdddb6" stroke="black" cx="1385" cy="-106" rx="95.58" ry="18"/>
<text text-anchor="middle" x="1385" y="-102.3" font-family="Times,serif" font-size="14.00">type_handling.cpp</text>
</g>
<!-- n8&#45;&gt;n0 -->
<g id="edge9" class="edge">
<title>n8&#45;&gt;n0</title>
<path fill="none" stroke="black" d="M1331.33,-91.09C1284.1,-78.84 1215.68,-61.1 1168.49,-48.87"/>
<polygon fill="black" stroke="black" points="1169.32,-45.47 1158.76,-46.35 1167.56,-52.24 1169.32,-45.47"/>
</g>
<!-- n9 -->
<g id="node10" class="node">
<title>n9</title>
<ellipse fill="#fcbba1" stroke="black" cx="500" cy="-106" rx="51.99" ry="18"/>
<text text-anchor="middle" x="500" y="-102.3" font-family="Times,serif" font-size="14.00">utils.hpp</text>
</g>
<!-- n9&#45;&gt;n0 -->
<g id="edge10" class="edge">
<title>n9&#45;&gt;n0</title>
<path fill="none" stroke="black" d="M538.87,-93.92C547.73,-91.69 557.14,-89.56 566,-88 737.13,-57.89 941.49,-43.84 1045.99,-38.21"/>
<polygon fill="black" stroke="black" points="1046.29,-41.69 1056.09,-37.67 1045.92,-34.7 1046.29,-41.69"/>
</g>
<!-- n10 -->
<g id="node11" class="node">
<title>n10</title>
<ellipse fill="#fff5f0" stroke="black" cx="517" cy="-178" rx="68.79" ry="18"/>
<text text-anchor="middle" x="517" y="-174.3" font-family="Times,serif" font-size="14.00">printing.hpp</text>
</g>
<!-- n10&#45;&gt;n0 -->
<g id="edge11" class="edge">
<title>n10&#45;&gt;n0</title>
<path fill="none" stroke="black" d="M474.18,-163.72C455.29,-155.49 434.92,-142.8 424,-124 415.96,-110.17 413.13,-99.74 424,-88 465.59,-43.09 877.66,-36.09 1044.96,-35.11"/>
<polygon fill="black" stroke="black" points="1045.16,-38.61 1055.14,-35.05 1045.12,-31.61 1045.16,-38.61"/>
</g>
<!-- n10&#45;&gt;n4 -->
<g id="edge12" class="edge">
<title>n10&#45;&gt;n4</title>
<path fill="none" stroke="black" d="M567.29,-165.6C578.04,-163.47 589.36,-161.46 600,-160 822.92,-129.36 881.64,-151.26 1105,-124 1116.14,-122.64 1127.93,-120.88 1139.33,-119"/>
<polygon fill="black" stroke="black" points="1139.95,-122.45 1149.23,-117.33 1138.79,-115.54 1139.95,-122.45"/>
</g>
<!-- n10&#45;&gt;n9 -->
<g id="edge13" class="edge">
<title>n10&#45;&gt;n9</title>
<path fill="none" stroke="black" d="M512.8,-159.7C510.9,-151.9 508.62,-142.51 506.52,-133.83"/>
<polygon fill="black" stroke="black" points="509.92,-133 504.15,-124.1 503.11,-134.65 509.92,-133"/>
</g>
<!-- n11 -->
<g id="node12" class="node">
<title>n11</title>
<ellipse fill="#fee0d2" stroke="black" cx="697" cy="-178" rx="73.39" ry="18"/>
<text text-anchor="middle" x="697" y="-174.3" font-family="Times,serif" font-size="14.00">microfmt.hpp</text>
</g>
<!-- n12 -->
<g id="node13" class="node">
<title>n12</title>
<ellipse fill="#bdddb6" stroke="black" cx="512" cy="-250" rx="67.69" ry="18"/>
<text text-anchor="middle" x="512" y="-246.3" font-family="Times,serif" font-size="14.00">printing.cpp</text>
</g>
<!-- n12&#45;&gt;n10 -->
<g id="edge14" class="edge">
<title>n12&#45;&gt;n10</title>
<path fill="none" stroke="black" d="M513.24,-231.7C513.79,-223.98 514.45,-214.71 515.06,-206.11"/>
<polygon fill="black" stroke="black" points="518.56,-206.33 515.78,-196.1 511.57,-205.83 518.56,-206.33"/>
</g>
<!-- n12&#45;&gt;n11 -->
<g id="edge15" class="edge">
<title>n12&#45;&gt;n11</title>
<path fill="none" stroke="black" d="M549.44,-234.83C578.11,-223.98 617.89,-208.93 648.92,-197.19"/>
<polygon fill="black" stroke="black" points="650.55,-200.32 658.66,-193.51 648.07,-193.77 650.55,-200.32"/>
</g>
<!-- n13 -->
<g id="node14" class="node">
<title>n13</title>
<ellipse fill="#fee0d2" stroke="black" cx="280" cy="-106" rx="70.39" ry="18"/>
<text text-anchor="middle" x="280" y="-102.3" font-family="Times,serif" font-size="14.00">common.hpp</text>
</g>
<!-- n14 -->
<g id="node15" class="node">
<title>n14</title>
<ellipse fill="#fff5f0" stroke="black" cx="127" cy="-178" rx="71.49" ry="18"/>
<text text-anchor="middle" x="127" y="-174.3" font-family="Times,serif" font-size="14.00">platform.hpp</text>
</g>
<!-- n14&#45;&gt;n0 -->
<g id="edge16" class="edge">
<title>n14&#45;&gt;n0</title>
<path fill="none" stroke="black" d="M143.51,-160.35C153.32,-150.17 165.8,-136.7 176,-124 188.2,-108.81 184.01,-97.52 201,-88 273.91,-47.13 844.06,-37.64 1045.11,-35.56"/>
<polygon fill="black" stroke="black" points="1045.29,-39.05 1055.26,-35.45 1045.22,-32.06 1045.29,-39.05"/>
</g>
<!-- n14&#45;&gt;n13 -->
<g id="edge17" class="edge">
<title>n14&#45;&gt;n13</title>
<path fill="none" stroke="black" d="M159.82,-161.98C182.71,-151.51 213.45,-137.45 238.11,-126.17"/>
<polygon fill="black" stroke="black" points="239.59,-129.34 247.23,-121.99 236.68,-122.97 239.59,-129.34"/>
</g>
<!-- n15 -->
<g id="node16" class="node">
<title>n15</title>
<ellipse fill="#bdddb6" stroke="black" cx="90" cy="-250" rx="70.39" ry="18"/>
<text text-anchor="middle" x="90" y="-246.3" font-family="Times,serif" font-size="14.00">platform.cpp</text>
</g>
<!-- n15&#45;&gt;n0 -->
<g id="edge18" class="edge">
<title>n15&#45;&gt;n0</title>
<path fill="none" stroke="black" d="M68.31,-232.59C46.68,-214.21 19.07,-183.87 37,-160 71.46,-114.11 118.21,-162.24 161,-124 173.92,-112.45 161.85,-98.02 176,-88 246.31,-38.21 838.96,-34.49 1044.85,-34.72"/>
<polygon fill="black" stroke="black" points="1044.94,-38.22 1054.95,-34.74 1044.95,-31.22 1044.94,-38.22"/>
</g>
<!-- n15&#45;&gt;n9 -->
<g id="edge19" class="edge">
<title>n15&#45;&gt;n9</title>
<path fill="none" stroke="black" d="M125.06,-234.37C148.57,-224.26 180.04,-210.13 207,-196 234.54,-181.56 238.14,-171.59 267,-160 324.5,-136.9 394.23,-122.71 442.34,-114.9"/>
<polygon fill="black" stroke="black" points="442.93,-118.35 452.26,-113.33 441.84,-111.44 442.93,-118.35"/>
</g>
<!-- n15&#45;&gt;n13 -->
<g id="edge20" class="edge">
<title>n15&#45;&gt;n13</title>
<path fill="none" stroke="black" d="M71.54,-232.33C52.87,-213.45 29.12,-182.4 47,-160 57.42,-146.94 147.03,-129.32 212.01,-118.06"/>
<polygon fill="black" stroke="black" points="212.95,-121.45 222.22,-116.31 211.77,-114.55 212.95,-121.45"/>
</g>
<!-- n15&#45;&gt;n14 -->
<g id="edge21" class="edge">
<title>n15&#45;&gt;n14</title>
<path fill="none" stroke="black" d="M98.96,-232.05C103.21,-224.01 108.39,-214.2 113.14,-205.23"/>
<polygon fill="black" stroke="black" points="116.29,-206.75 117.87,-196.28 110.1,-203.48 116.29,-206.75"/>
</g>
<!-- n16 -->
<g id="node17" class="node">
<title>n16</title>
<ellipse fill="#bdddb6" stroke="black" cx="1167" cy="-178" rx="94.78" ry="18"/>
<text text-anchor="middle" x="1167" y="-174.3" font-family="Times,serif" font-size="14.00">stringification.cpp</text>
</g>
<!-- n16&#45;&gt;n0 -->
<g id="edge22" class="edge">
<title>n16&#45;&gt;n0</title>
<path fill="none" stroke="black" d="M1149.44,-159.99C1140.58,-150.31 1130.55,-137.46 1125,-124 1116.91,-104.38 1114.61,-80.39 1114.22,-62.27"/>
<polygon fill="black" stroke="black" points="1117.71,-62.08 1114.18,-52.09 1110.71,-62.1 1117.71,-62.08"/>
</g>
<!-- n16&#45;&gt;n4 -->
<g id="edge23" class="edge">
<title>n16&#45;&gt;n4</title>
<path fill="none" stroke="black" d="M1175.71,-160.05C1179.85,-152.01 1184.89,-142.2 1189.51,-133.23"/>
<polygon fill="black" stroke="black" points="1192.65,-134.77 1194.12,-124.28 1186.43,-131.57 1192.65,-134.77"/>
</g>
<!-- n16&#45;&gt;n9 -->
<g id="edge24" class="edge">
<title>n16&#45;&gt;n9</title>
<path fill="none" stroke="black" d="M1093.4,-166.62C1075.31,-164.26 1055.97,-161.89 1038,-160 835.38,-138.68 782.67,-152.98 581,-124 571.5,-122.63 561.44,-120.82 551.77,-118.89"/>
<polygon fill="black" stroke="black" points="552.36,-115.44 541.86,-116.85 550.95,-122.3 552.36,-115.44"/>
</g>
<!-- n17 -->
<g id="node18" class="node">
<title>n17</title>
<ellipse fill="#99ce93" stroke="black" cx="1060" cy="-106" rx="36" ry="18"/>
<text text-anchor="middle" x="1060" y="-102.3" font-family="Times,serif" font-size="14.00">a.cpp</text>
</g>
<!-- n17&#45;&gt;n0 -->
<g id="edge25" class="edge">
<title>n17&#45;&gt;n0</title>
<path fill="none" stroke="black" d="M1072.48,-89.12C1079.31,-80.42 1087.93,-69.45 1095.62,-59.66"/>
<polygon fill="black" stroke="black" points="1098.38,-61.82 1101.8,-51.8 1092.87,-57.5 1098.38,-61.82"/>
</g>
<!-- n18 -->
<g id="node19" class="node">
<title>n18</title>
<ellipse fill="#fff5f0" stroke="black" cx="941" cy="-178" rx="73.39" ry="18"/>
<text text-anchor="middle" x="941" y="-174.3" font-family="Times,serif" font-size="14.00">tokenizer.hpp</text>
</g>
<!-- n18&#45;&gt;n9 -->
<g id="edge26" class="edge">
<title>n18&#45;&gt;n9</title>
<path fill="none" stroke="black" d="M886.8,-165.81C875.96,-163.74 864.64,-161.7 854,-160 726.62,-139.62 692.72,-148.14 566,-124 560.55,-122.96 554.89,-121.73 549.26,-120.42"/>
<polygon fill="black" stroke="black" points="549.8,-116.95 539.25,-117.99 548.14,-123.75 549.8,-116.95"/>
</g>
<!-- n19 -->
<g id="node20" class="node">
<title>n19</title>
<ellipse fill="#99ce93" stroke="black" cx="934" cy="-250" rx="72.59" ry="18"/>
<text text-anchor="middle" x="934" y="-246.3" font-family="Times,serif" font-size="14.00">tokenizer.cpp</text>
</g>
<!-- n19&#45;&gt;n9 -->
<g id="edge27" class="edge">
<title>n19&#45;&gt;n9</title>
<path fill="none" stroke="black" d="M911.09,-232.79C875.61,-207.76 810.85,-162.31 805,-160 705.11,-120.48 671.26,-145.43 566,-124 560.57,-122.89 554.91,-121.62 549.29,-120.28"/>
<polygon fill="black" stroke="black" points="549.83,-116.81 539.28,-117.82 548.16,-123.61 549.83,-116.81"/>
</g>
<!-- n19&#45;&gt;n18 -->
<g id="edge28" class="edge">
<title>n19&#45;&gt;n18</title>
<path fill="none" stroke="black" d="M935.73,-231.7C936.5,-223.98 937.43,-214.71 938.29,-206.11"/>
<polygon fill="black" stroke="black" points="941.78,-206.4 939.29,-196.1 934.81,-205.71 941.78,-206.4"/>
</g>
<!-- n20 -->
<g id="node21" class="node">
<title>n20</title>
<ellipse fill="#99ce93" stroke="black" cx="962" cy="-106" rx="44.39" ry="18"/>
<text text-anchor="middle" x="962" y="-102.3" font-family="Times,serif" font-size="14.00">foo.cpp</text>
</g>
<!-- n20&#45;&gt;n0 -->
<g id="edge29" class="edge">
<title>n20&#45;&gt;n0</title>
<path fill="none" stroke="black" d="M990.42,-92C1013.97,-81.22 1047.75,-65.77 1074.19,-53.67"/>
<polygon fill="black" stroke="black" points="1075.93,-56.72 1083.57,-49.38 1073.02,-50.36 1075.93,-56.72"/>
</g>
<!-- n21 -->
<g id="node22" class="node">
<title>n21</title>
<ellipse fill="#99ce93" stroke="black" cx="855" cy="-106" rx="44.69" ry="18"/>
<text text-anchor="middle" x="855" y="-102.3" font-family="Times,serif" font-size="14.00">bar.cpp</text>
</g>
<!-- n21&#45;&gt;n0 -->
<g id="edge30" class="edge">
<title>n21&#45;&gt;n0</title>
<path fill="none" stroke="black" d="M888.91,-94.02C895.55,-91.96 902.48,-89.86 909,-88 959.84,-73.47 1018.26,-58.61 1059.87,-48.34"/>
<polygon fill="black" stroke="black" points="1060.93,-51.68 1069.81,-45.89 1059.26,-44.88 1060.93,-51.68"/>
</g>
<!-- n22 -->
<g id="node23" class="node">
<title>n22</title>
<ellipse fill="#99ce93" stroke="black" cx="736" cy="-106" rx="55.79" ry="18"/>
<text text-anchor="middle" x="736" y="-102.3" font-family="Times,serif" font-size="14.00">demo.cpp</text>
</g>
<!-- n22&#45;&gt;n0 -->
<g id="edge31" class="edge">
<title>n22&#45;&gt;n0</title>
<path fill="none" stroke="black" d="M777.13,-93.66C785.02,-91.65 793.25,-89.67 801,-88 887.28,-69.47 988.03,-53.45 1051.67,-44"/>
<polygon fill="black" stroke="black" points="1052.57,-47.41 1061.95,-42.49 1051.54,-40.48 1052.57,-47.41"/>
</g>
<!-- n23 -->
<g id="node24" class="node">
<title>n23</title>
<ellipse fill="#99ce93" stroke="black" cx="626" cy="-106" rx="36" ry="18"/>
<text text-anchor="middle" x="626" y="-102.3" font-family="Times,serif" font-size="14.00">a.cpp</text>
</g>
<!-- n23&#45;&gt;n0 -->
<g id="edge32" class="edge">
<title>n23&#45;&gt;n0</title>
<path fill="none" stroke="black" d="M652.79,-93.67C658.7,-91.51 665,-89.47 671,-88 801.2,-56.14 957.75,-43.15 1045.87,-38.06"/>
<polygon fill="black" stroke="black" points="1046.22,-41.55 1056.01,-37.5 1045.83,-34.56 1046.22,-41.55"/>
</g>
<!-- n24 -->
<g id="node25" class="node">
<title>n24</title>
<ellipse fill="#99ce93" stroke="black" cx="793" cy="-250" rx="50.89" ry="18"/>
<text text-anchor="middle" x="793" y="-246.3" font-family="Times,serif" font-size="14.00">utils.cpp</text>
</g>
<!-- n24&#45;&gt;n0 -->
<g id="edge33" class="edge">
<title>n24&#45;&gt;n0</title>
<path fill="none" stroke="black" d="M792.7,-231.92C791.92,-208.87 789.09,-169.59 779,-160 723.94,-107.65 489.82,-180.48 439,-124 428.3,-112.11 428.14,-99.75 439,-88 479.56,-44.14 880.86,-36.51 1045.29,-35.23"/>
<polygon fill="black" stroke="black" points="1045.32,-38.73 1055.3,-35.16 1045.27,-31.73 1045.32,-38.73"/>
</g>
<!-- n24&#45;&gt;n9 -->
<g id="edge34" class="edge">
<title>n24&#45;&gt;n9</title>
<path fill="none" stroke="black" d="M799.15,-232.03C805.09,-212.28 810.96,-179.85 794,-160 760.68,-121 616.23,-134.41 566,-124 560.64,-122.89 555.06,-121.63 549.52,-120.3"/>
<polygon fill="black" stroke="black" points="550.19,-116.86 539.64,-117.87 548.52,-123.66 550.19,-116.86"/>
</g>
<!-- n24&#45;&gt;n11 -->
<g id="edge35" class="edge">
<title>n24&#45;&gt;n11</title>
<path fill="none" stroke="black" d="M771.69,-233.46C758.67,-223.97 741.81,-211.67 727.4,-201.17"/>
<polygon fill="black" stroke="black" points="729.39,-198.29 719.25,-195.22 725.26,-203.94 729.39,-198.29"/>
</g>
<!-- n25 -->
<g id="node26" class="node">
<title>n25</title>
<ellipse fill="#fff5f0" stroke="black" cx="333" cy="-178" rx="57.39" ry="18"/>
<text text-anchor="middle" x="333" y="-174.3" font-family="Times,serif" font-size="14.00">paths.hpp</text>
</g>
<!-- n25&#45;&gt;n0 -->
<g id="edge36" class="edge">
<title>n25&#45;&gt;n0</title>
<path fill="none" stroke="black" d="M341.6,-160.07C354.26,-135.48 377.14,-92.31 384,-88 439.12,-53.33 873.45,-40.22 1045.33,-36.36"/>
<polygon fill="black" stroke="black" points="1045.6,-39.85 1055.53,-36.13 1045.45,-32.85 1045.6,-39.85"/>
</g>
<!-- n25&#45;&gt;n9 -->
<g id="edge37" class="edge">
<title>n25&#45;&gt;n9</title>
<path fill="none" stroke="black" d="M365.99,-163.17C392.64,-152 430.28,-136.23 458.88,-124.24"/>
<polygon fill="black" stroke="black" points="460.34,-127.42 468.21,-120.33 457.63,-120.96 460.34,-127.42"/>
</g>
<!-- n26 -->
<g id="node27" class="node">
<title>n26</title>
<ellipse fill="#99ce93" stroke="black" cx="234" cy="-250" rx="55.79" ry="18"/>
<text text-anchor="middle" x="234" y="-246.3" font-family="Times,serif" font-size="14.00">paths.cpp</text>
</g>
<!-- n26&#45;&gt;n13 -->
<g id="edge38" class="edge">
<title>n26&#45;&gt;n13</title>
<path fill="none" stroke="black" d="M235.98,-231.88C238.43,-213.66 243.36,-184.2 252,-160 255.25,-150.88 259.84,-141.4 264.36,-133.01"/>
<polygon fill="black" stroke="black" points="267.52,-134.53 269.36,-124.09 261.42,-131.1 267.52,-134.53"/>
</g>
<!-- n26&#45;&gt;n25 -->
<g id="edge39" class="edge">
<title>n26&#45;&gt;n25</title>
<path fill="none" stroke="black" d="M256.46,-233.12C270.01,-223.54 287.45,-211.21 302.26,-200.74"/>
<polygon fill="black" stroke="black" points="304.48,-203.45 310.62,-194.82 300.44,-197.74 304.48,-203.45"/>
</g>
<!-- n27 -->
<g id="node28" class="node">
<title>n27</title>
<ellipse fill="#bdddb6" stroke="black" cx="1688" cy="-178" rx="143.77" ry="18"/>
<text text-anchor="middle" x="1688" y="-174.3" font-family="Times,serif" font-size="14.00">tokens_and_highlighting.cpp</text>
</g>
<!-- n27&#45;&gt;n0 -->
<g id="edge40" class="edge">
<title>n27&#45;&gt;n0</title>
<path fill="none" stroke="black" d="M1804.02,-167.39C1882.35,-156.61 1964.21,-134.15 1921,-88 1871.26,-34.88 1372.27,-33.06 1185.27,-34.27"/>
<polygon fill="black" stroke="black" points="1184.98,-30.77 1175,-34.34 1185.03,-37.77 1184.98,-30.77"/>
</g>
<!-- n27&#45;&gt;n4 -->
<g id="edge41" class="edge">
<title>n27&#45;&gt;n4</title>
<path fill="none" stroke="black" d="M1581.94,-165.82C1499.36,-156.48 1382.02,-141.85 1280,-124 1274.3,-123 1268.38,-121.87 1262.47,-120.68"/>
<polygon fill="black" stroke="black" points="1263.08,-117.23 1252.58,-118.62 1261.66,-124.08 1263.08,-117.23"/>
</g>
<!-- n28 -->
<g id="node29" class="node">
<title>n28</title>
<ellipse fill="#6eba70" stroke="black" cx="367" cy="-250" rx="59.29" ry="18"/>
<text text-anchor="middle" x="367" y="-246.3" font-family="Times,serif" font-size="14.00">assert.cpp</text>
</g>
<!-- n28&#45;&gt;n0 -->
<g id="edge42" class="edge">
<title>n28&#45;&gt;n0</title>
<path fill="none" stroke="black" d="M379.6,-232.24C386.46,-222.24 394.46,-208.99 399,-196 414.96,-150.31 377.87,-121.3 413,-88 458.2,-45.15 876.48,-36.94 1045.07,-35.37"/>
<polygon fill="black" stroke="black" points="1045.11,-38.87 1055.08,-35.28 1045.05,-31.87 1045.11,-38.87"/>
</g>
<!-- n28&#45;&gt;n4 -->
<g id="edge43" class="edge">
<title>n28&#45;&gt;n4</title>
<path fill="none" stroke="black" d="M410.86,-237.87C418.88,-235.88 427.19,-233.86 435,-232 505.92,-215.16 536.65,-239.68 595,-196 609.65,-185.03 599.58,-169.85 615,-160 707.01,-101.22 996.64,-137.35 1105,-124 1116.13,-122.63 1127.93,-120.86 1139.33,-118.98"/>
<polygon fill="black" stroke="black" points="1139.95,-122.43 1149.23,-117.31 1138.78,-115.52 1139.95,-122.43"/>
</g>
<!-- n28&#45;&gt;n9 -->
<g id="edge44" class="edge">
<title>n28&#45;&gt;n9</title>
<path fill="none" stroke="black" d="M382.77,-232.26C392.15,-222.04 404.12,-208.57 414,-196 426.04,-180.69 425.99,-174.5 439,-160 448.78,-149.1 460.73,-138.28 471.45,-129.28"/>
<polygon fill="black" stroke="black" points="473.85,-131.84 479.35,-122.78 469.4,-126.43 473.85,-131.84"/>
</g>
<!-- n28&#45;&gt;n10 -->
<g id="edge45" class="edge">
<title>n28&#45;&gt;n10</title>
<path fill="none" stroke="black" d="M398.08,-234.5C420.6,-223.99 451.29,-209.67 475.84,-198.21"/>
<polygon fill="black" stroke="black" points="477.34,-201.37 484.92,-193.97 474.38,-195.03 477.34,-201.37"/>
</g>
<!-- n28&#45;&gt;n11 -->
<g id="edge46" class="edge">
<title>n28&#45;&gt;n11</title>
<path fill="none" stroke="black" d="M410.83,-237.73C418.85,-235.76 427.17,-233.77 435,-232 471.63,-223.72 566.66,-204.73 631.61,-191.88"/>
<polygon fill="black" stroke="black" points="632.63,-195.24 641.76,-189.87 631.27,-188.37 632.63,-195.24"/>
</g>
<!-- n28&#45;&gt;n13 -->
<g id="edge47" class="edge">
<title>n28&#45;&gt;n13</title>
<path fill="none" stroke="black" d="M323.9,-237.62C302.84,-229.65 279.41,-216.62 267,-196 255.67,-177.17 260.72,-152.15 267.57,-133.44"/>
<polygon fill="black" stroke="black" points="270.87,-134.61 271.35,-124.03 264.38,-132 270.87,-134.61"/>
</g>
<!-- n28&#45;&gt;n14 -->
<g id="edge48" class="edge">
<title>n28&#45;&gt;n14</title>
<path fill="none" stroke="black" d="M325.74,-236.97C285.87,-225.34 225.23,-207.65 181.43,-194.87"/>
<polygon fill="black" stroke="black" points="182.37,-191.5 171.79,-192.06 180.41,-198.22 182.37,-191.5"/>
</g>
<!-- n28&#45;&gt;n25 -->
<g id="edge49" class="edge">
<title>n28&#45;&gt;n25</title>
<path fill="none" stroke="black" d="M358.77,-232.05C354.9,-224.09 350.2,-214.41 345.88,-205.51"/>
<polygon fill="black" stroke="black" points="348.91,-203.74 341.39,-196.28 342.61,-206.8 348.91,-203.74"/>
</g>
<!-- n29 -->
<g id="node30" class="node">
<title>n29</title>
<ellipse fill="#3ea258" stroke="black" cx="84" cy="-106" rx="68.49" ry="18"/>
<text text-anchor="middle" x="84" y="-102.3" font-family="Times,serif" font-size="14.00">stringify.cpp</text>
</g>
<!-- n29&#45;&gt;n0 -->
<g id="edge50" class="edge">
<title>n29&#45;&gt;n0</title>
<path fill="none" stroke="black" d="M133.67,-93.47C144.29,-91.35 155.48,-89.38 166,-88 493.01,-45.21 887.84,-36.93 1045.28,-35.36"/>
<polygon fill="black" stroke="black" points="1045.34,-38.86 1055.31,-35.26 1045.28,-31.86 1045.34,-38.86"/>
</g>
<!-- n30 -->
<g id="node31" class="node">
<title>n30</title>
<ellipse fill="#fff5f0" stroke="black" cx="3089" cy="-106" rx="87.18" ry="18"/>
<text text-anchor="middle" x="3089" y="-102.3" font-family="Times,serif" font-size="14.00">assert&#45;gtest.hpp</text>
</g>
<!-- n30&#45;&gt;n0 -->
<g id="edge51" class="edge">
<title>n30&#45;&gt;n0</title>
<path fill="none" stroke="black" d="M3028.76,-92.94C3016.95,-90.97 3004.62,-89.19 2993,-88 2632.23,-51.17 1481.29,-38.33 1185.06,-35.6"/>
<polygon fill="black" stroke="black" points="1184.92,-32.1 1174.89,-35.5 1184.85,-39.1 1184.92,-32.1"/>
</g>
<!-- n31 -->
<g id="node32" class="node">
<title>n31</title>
<ellipse fill="#3ea258" stroke="black" cx="3108" cy="-178" rx="67.69" ry="18"/>
<text text-anchor="middle" x="3108" y="-174.3" font-family="Times,serif" font-size="14.00">fmt&#45;test.cpp</text>
</g>
<!-- n31&#45;&gt;n30 -->
<g id="edge52" class="edge">
<title>n31&#45;&gt;n30</title>
<path fill="none" stroke="black" d="M3103.3,-159.7C3101.19,-151.9 3098.64,-142.51 3096.28,-133.83"/>
<polygon fill="black" stroke="black" points="3099.64,-132.84 3093.64,-124.1 3092.88,-134.67 3099.64,-132.84"/>
</g>
<!-- n32 -->
<g id="node33" class="node">
<title>n32</title>
<ellipse fill="#3ea258" stroke="black" cx="661" cy="-250" rx="63.09" ry="18"/>
<text text-anchor="middle" x="661" y="-246.3" font-family="Times,serif" font-size="14.00">literals.cpp</text>
</g>
<!-- n32&#45;&gt;n11 -->
<g id="edge53" class="edge">
<title>n32&#45;&gt;n11</title>
<path fill="none" stroke="black" d="M669.71,-232.05C673.85,-224.01 678.89,-214.2 683.51,-205.23"/>
<polygon fill="black" stroke="black" points="686.65,-206.77 688.12,-196.28 680.43,-203.57 686.65,-206.77"/>
</g>
<!-- n33 -->
<g id="node34" class="node">
<title>n33</title>
<ellipse fill="#6eba70" stroke="black" cx="2940" cy="-178" rx="82.59" ry="18"/>
<text text-anchor="middle" x="2940" y="-174.3" font-family="Times,serif" font-size="14.00">gtest&#45;demo.cpp</text>
</g>
<!-- n33&#45;&gt;n30 -->
<g id="edge54" class="edge">
<title>n33&#45;&gt;n30</title>
<path fill="none" stroke="black" d="M2973.07,-161.46C2994.62,-151.34 3022.95,-138.03 3046.21,-127.1"/>
<polygon fill="black" stroke="black" points="3047.95,-130.15 3055.51,-122.73 3044.97,-123.82 3047.95,-130.15"/>
</g>
<!-- n34 -->
<g id="node35" class="node">
<title>n34</title>
<ellipse fill="#218441" stroke="black" cx="2214" cy="-250" rx="52.79" ry="18"/>
<text text-anchor="middle" x="2214" y="-246.3" font-family="Times,serif" font-size="14.00">lexer.cpp</text>
</g>
<!-- n34&#45;&gt;n0 -->
<g id="edge55" class="edge">
<title>n34&#45;&gt;n0</title>
<path fill="none" stroke="black" d="M2266.66,-248.11C2464.43,-244.5 3153.2,-229.58 3185,-196 3201.5,-178.57 3201.75,-105.19 3185,-88 3149.32,-51.4 1542.21,-37.99 1184.9,-35.46"/>
<polygon fill="black" stroke="black" points="1184.72,-31.96 1174.69,-35.39 1184.67,-38.96 1184.72,-31.96"/>
</g>
<!-- n34&#45;&gt;n18 -->
<g id="edge56" class="edge">
<title>n34&#45;&gt;n18</title>
<path fill="none" stroke="black" d="M2161.4,-248.31C1998.11,-245.79 1485.53,-235.08 1063,-196 1046.25,-194.45 1028.27,-192.25 1011.4,-189.94"/>
<polygon fill="black" stroke="black" points="1011.45,-186.41 1001.06,-188.49 1010.48,-193.35 1011.45,-186.41"/>
</g>
<!-- n35 -->
<g id="node36" class="node">
<title>n35</title>
<ellipse fill="#fff5f0" stroke="black" cx="2890" cy="-106" rx="93.68" ry="18"/>
<text text-anchor="middle" x="2890" y="-102.3" font-family="Times,serif" font-size="14.00">assert&#45;catch2.hpp</text>
</g>
<!-- n35&#45;&gt;n0 -->
<g id="edge57" class="edge">
<title>n35&#45;&gt;n0</title>
<path fill="none" stroke="black" d="M2823.62,-93.22C2809.9,-91.16 2795.51,-89.27 2782,-88 2464.47,-58.08 1459.02,-40.41 1184.72,-36.06"/>
<polygon fill="black" stroke="black" points="1184.55,-32.56 1174.5,-35.9 1184.44,-39.56 1184.55,-32.56"/>
</g>
<!-- n36 -->
<g id="node37" class="node">
<title>n36</title>
<ellipse fill="#6eba70" stroke="black" cx="2750" cy="-178" rx="89.08" ry="18"/>
<text text-anchor="middle" x="2750" y="-174.3" font-family="Times,serif" font-size="14.00">catch2&#45;demo.cpp</text>
</g>
<!-- n36&#45;&gt;n35 -->
<g id="edge58" class="edge">
<title>n36&#45;&gt;n35</title>
<path fill="none" stroke="black" d="M2781.77,-161.12C2801.59,-151.21 2827.3,-138.35 2848.69,-127.65"/>
<polygon fill="black" stroke="black" points="2850.49,-130.67 2857.87,-123.06 2847.36,-124.41 2850.49,-130.67"/>
</g>
<!-- n37 -->
<g id="node38" class="node">
<title>n37</title>
<ellipse fill="#218441" stroke="black" cx="3452" cy="-106" rx="55.79" ry="18"/>
<text text-anchor="middle" x="3452" y="-102.3" font-family="Times,serif" font-size="14.00">demo.cpp</text>
</g>
<!-- n37&#45;&gt;n0 -->
<g id="edge59" class="edge">
<title>n37&#45;&gt;n0</title>
<path fill="none" stroke="black" d="M3412.77,-93.17C3404.34,-91.08 3395.43,-89.18 3387,-88 3164.77,-56.78 1543.15,-39.19 1184.91,-35.66"/>
<polygon fill="black" stroke="black" points="1184.72,-32.16 1174.69,-35.56 1184.65,-39.16 1184.72,-32.16"/>
</g>
<!-- n38 -->
<g id="node39" class="node">
<title>n38</title>
<ellipse fill="#00672a" stroke="black" cx="3296" cy="-106" rx="81.79" ry="18"/>
<text text-anchor="middle" x="3296" y="-102.3" font-family="Times,serif" font-size="14.00">integration.cpp</text>
</g>
<!-- n38&#45;&gt;n0 -->
<g id="edge60" class="edge">
<title>n38&#45;&gt;n0</title>
<path fill="none" stroke="black" d="M3237.81,-93.26C3225.38,-91.15 3212.29,-89.24 3200,-88 2796.35,-47.36 1501.87,-37.26 1185.34,-35.37"/>
<polygon fill="black" stroke="black" points="1184.95,-31.87 1174.93,-35.31 1184.91,-38.87 1184.95,-31.87"/>
</g>
<!-- n39 -->
<g id="node40" class="node">
<title>n39</title>
<ellipse fill="#00411a" stroke="black" cx="1092" cy="-250" rx="67.69" ry="18"/>
<text text-anchor="middle" x="1092" y="-246.3" font-family="Times,serif" font-size="14.00">analysis.cpp</text>
</g>
<!-- n39&#45;&gt;n0 -->
<g id="edge61" class="edge">
<title>n39&#45;&gt;n0</title>
<path fill="none" stroke="black" d="M1082.57,-231.95C1068.55,-206.72 1043.47,-162.17 1040,-160 953.32,-105.64 650.46,-199.12 581,-124 570.14,-112.25 570.26,-99.86 581,-88 611.62,-54.19 907.93,-41.09 1045.48,-36.8"/>
<polygon fill="black" stroke="black" points="1045.61,-40.3 1055.5,-36.5 1045.4,-33.3 1045.61,-40.3"/>
</g>
<!-- n39&#45;&gt;n4 -->
<g id="edge62" class="edge">
<title>n39&#45;&gt;n4</title>
<path fill="none" stroke="black" d="M1147.95,-239.9C1194.72,-231.01 1256.12,-215.93 1271,-196 1280.57,-183.18 1278.02,-174.38 1271,-160 1264.66,-147.01 1253.42,-136.28 1241.89,-127.95"/>
<polygon fill="black" stroke="black" points="1243.76,-124.99 1233.51,-122.32 1239.85,-130.8 1243.76,-124.99"/>
</g>
<!-- n39&#45;&gt;n9 -->
<g id="edge63" class="edge">
<title>n39&#45;&gt;n9</title>
<path fill="none" stroke="black" d="M1077.35,-232.12C1068.61,-221.85 1057.41,-208.38 1048,-196 1036.21,-180.49 1039.89,-169.7 1023,-160 934.66,-109.28 666.48,-140.77 566,-124 560.24,-123.04 554.25,-121.82 548.34,-120.47"/>
<polygon fill="black" stroke="black" points="549.04,-117.04 538.5,-118.11 547.41,-123.85 549.04,-117.04"/>
</g>
<!-- n39&#45;&gt;n11 -->
<g id="edge64" class="edge">
<title>n39&#45;&gt;n11</title>
<path fill="none" stroke="black" d="M1042.62,-237.54C1033.77,-235.6 1024.63,-233.68 1016,-232 931.13,-215.47 832.92,-199.65 768.14,-189.66"/>
<polygon fill="black" stroke="black" points="768.45,-186.17 758.04,-188.11 767.39,-193.09 768.45,-186.17"/>
</g>
<!-- n39&#45;&gt;n13 -->
<g id="edge65" class="edge">
<title>n39&#45;&gt;n13</title>
<path fill="none" stroke="black" d="M1042.07,-237.77C974.94,-222.66 863.39,-197.47 859,-196 822.03,-183.61 816.64,-170.18 779,-160 632.32,-120.32 590.1,-140.08 439,-124 411.09,-121.03 380.44,-117.76 353.55,-114.88"/>
<polygon fill="black" stroke="black" points="353.76,-111.38 343.44,-113.8 353.01,-118.34 353.76,-111.38"/>
</g>
<!-- n39&#45;&gt;n18 -->
<g id="edge66" class="edge">
<title>n39&#45;&gt;n18</title>
<path fill="none" stroke="black" d="M1059.61,-233.98C1037.27,-223.63 1007.36,-209.76 983.16,-198.55"/>
<polygon fill="black" stroke="black" points="984.41,-195.26 973.86,-194.23 981.46,-201.61 984.41,-195.26"/>
</g>
</g>
</svg>
